<svg xmlns="http://www.w3.org/2000/svg" id="Layer_1" viewBox="0 0 1364 960">
  <path fill="#ebebeb" d="M1212.94,353.77h-66.78c-2.48,0-4.5,2.5-4.5,5.58v23c0,3.09,2,5.59,4.5,5.59h66.78c2.49,0,4.51-2.5,4.51-5.59v-23C1217.45,356.27,1215.43,353.77,1212.94,353.77Z"/>
  <path fill="#ebebeb" d="M1251.3,406.8h-66.78c-2.48,0-4.5,2.5-4.5,5.58v23c0,3.08,2,5.58,4.5,5.58h66.78c2.49,0,4.51-2.5,4.51-5.58v-23C1255.81,409.3,1253.79,406.8,1251.3,406.8Z"/>
  <path fill="#ebebeb" d="M206,149.19H139.2c-2.48,0-4.5,2.5-4.5,5.58v23c0,3.08,2,5.58,4.5,5.58H206c2.49,0,4.51-2.5,4.51-5.58v-23C210.49,151.69,208.47,149.19,206,149.19Z"/>
  <path fill="#ebebeb" d="M1036.37,101.89H969.59c-2.49,0-4.51,2.5-4.51,5.59v23c0,3.08,2,5.58,4.51,5.58h66.78c2.49,0,4.5-2.5,4.5-5.58v-23C1040.87,104.39,1038.86,101.89,1036.37,101.89Z"/>
  <path fill="#ebebeb" d="M627.06,389.7H560.28c-2.49,0-4.5,2.5-4.5,5.58v23c0,3.08,2,5.58,4.5,5.58h66.78c2.49,0,4.5-2.5,4.5-5.58v-23C631.56,392.2,629.55,389.7,627.06,389.7Z"/>
  <path fill="#ebebeb" d="M1208.69,574.89h-66.78c-2.49,0-4.51,2.5-4.51,5.59v23c0,3.08,2,5.58,4.51,5.58h66.78c2.48,0,4.5-2.5,4.5-5.58v-23C1213.19,577.39,1211.17,574.89,1208.69,574.89Z"/>
  <path fill="#ebebeb" d="M941,696.48H874.25c-2.49,0-4.51,2.5-4.51,5.59v23c0,3.08,2,5.58,4.51,5.58H941c2.49,0,4.51-2.5,4.51-5.58v-23C945.53,699,943.51,696.48,941,696.48Z"/>
  <path fill="#ebebeb" d="M389.5,610.29H322.72c-2.49,0-4.51,2.5-4.51,5.59v23c0,3.08,2,5.58,4.51,5.58H389.5c2.48,0,4.5-2.5,4.5-5.58v-23C394,612.79,392,610.29,389.5,610.29Z"/>
  <path fill="#ebebeb" d="M156.55,202H89.77c-2.49,0-4.5,2.5-4.5,5.59v23c0,3.08,2,5.58,4.5,5.58h66.78c2.49,0,4.5-2.5,4.5-5.58v-23C161.05,204.45,159,202,156.55,202Z"/>
  <path fill="#ebebeb" d="M442.63,659.47H375.85c-2.49,0-4.51,2.5-4.51,5.59v23c0,3.08,2,5.58,4.51,5.58h66.78c2.49,0,4.5-2.5,4.5-5.58v-23C447.13,662,445.12,659.47,442.63,659.47Z"/>
  <path fill="#ebebeb" d="M344.64,435.2H277.86c-2.49,0-4.51,2.5-4.51,5.58v23c0,3.08,2,5.58,4.51,5.58h66.78c2.49,0,4.5-2.5,4.5-5.58v-23C349.14,437.7,347.13,435.2,344.64,435.2Z"/>
  <path fill="#251645" d="M643.19,141.16a1,1,0,0,1-1-1.19c9.58-54.73-51.74-92.53-96.31-59.4,7.13,4.91,14,13.56,14.59,21,.9,7.24-2.91,14.48-8.86,16.85-9.65,4-20.49-6.64-20.33-16.18-.08-7.44,4-15.1,11.27-21.49-27.22-17.8-64.2-4.66-74.26,26.18a1,1,0,0,1-1.9-.61C476.94,74,515.87,60.4,544.17,79.38,589.64,43.7,657,85.53,643.19,141.16ZM544.28,81.88c-7.1,6.07-11.07,13.32-11,20.3-.2,8.17,9.26,17.79,17.59,14.35,5.13-2,8.4-8.38,7.62-14.74C556.91,92.32,550.79,86.78,544.28,81.88Z"/>
  <path fill="#ffc940" d="M837.56,104.73a5.73,5.73,0,0,1-3.26,8.44l-19.07,5.56a5.73,5.73,0,0,1-7.13-6.81l4.72-19.3a5.72,5.72,0,0,1,9.47-2.76C822.42,90.14,838.31,104.89,837.56,104.73Zm-23.85,7.67a1,1,0,0,0,1.15.45l16-4.68a1,1,0,0,0,.7-.73,1,1,0,0,0-.28-1l-12-11.53a1,1,0,0,0-1-.24,1,1,0,0,0-.7.73l-4,16.2A1,1,0,0,0,813.71,112.4Z"/>
  <path fill="#ff578c" d="M454.3,765.18a5.74,5.74,0,0,1-3.26,8.45L432,779.19a5.72,5.72,0,0,1-7.12-6.82l4.72-19.3a5.72,5.72,0,0,1,9.46-2.76C439.16,750.59,455,765.34,454.3,765.18Zm-23.86,7.67a1,1,0,0,0,1.15.45l16-4.67a1,1,0,0,0,.42-1.7L436,755.39a1,1,0,0,0-1.68.49l-4,16.21A1,1,0,0,0,430.44,772.85Z"/>
  <path fill="#ffc940" d="M1206.78,217.14a14.61,14.61,0,0,1-14.59-14.59c.8-19.35,28.38-19.35,29.18,0A14.6,14.6,0,0,1,1206.78,217.14Zm0-23.8a9.22,9.22,0,0,0-9.21,9.21c.43,12.19,18,12.19,18.42,0A9.22,9.22,0,0,0,1206.78,193.34Z"/>
  <path fill="#ffc940" d="M96,602.89A13.71,13.71,0,0,1,82.26,589.2C83,571,108.9,571,109.65,589.2A13.71,13.71,0,0,1,96,602.89Zm0-22.33a8.66,8.66,0,0,0-8.64,8.64c.41,11.44,16.88,11.44,17.29,0A8.66,8.66,0,0,0,96,580.56Z"/>
  <path fill="#251645" d="M1175.3,893.85H902.4a1.5,1.5,0,0,1,0-3h272.9a1.5,1.5,0,0,1,0,3Z"/>
  <path fill="#251645" d="M793,893.85H198.74a1.5,1.5,0,0,1,0-3H793a1.5,1.5,0,0,1,0,3Z"/>
  <path fill="#251645" d="M291.17,225.73q-12.71,0-20.71-7.37c-10.68-9-10.44-31.23-.77-40.8q7.24-7.76,21.48-7.75H400.74q14.24,0,21.48,7.75c9.67,9.57,9.91,31.85-.76,40.8q-8,7.38-20.72,7.37c-23.73.35-23-12.85-36.35-13l-2.29,4.57a60.89,60.89,0,0,0,3.56,6.49,52.7,52.7,0,0,1,4.83,11.94q2.28,7.77,2.28,21v73.46c.27,14.27-12.76,24.44-26.69,24.15-14.14.31-27.17-9.74-26.94-24.15V256.75q0-13.22,2.28-21a48.38,48.38,0,0,1,5-11.94,55.07,55.07,0,0,0,3.69-6.49l-2.55-4.57C314.07,212.9,314.81,226.19,291.17,225.73Z"/>
  <path fill="#251645" d="M466.83,353.6c-14.76.3-27.17-10.3-26.95-25.17V194c-.18-15,11.38-26.52,26.7-26.19,15.76-.42,27,10.71,26.94,25.68v47H540.8V194c-.11-15.32,11.46-26.54,27.2-26.19,15.56-.42,26.75,10.85,26.7,25.68v135a23.84,23.84,0,0,1-7.5,18.05c-9.6,9.83-29.2,9.17-38.64,0a23.43,23.43,0,0,1-7.76-18.05V277.85H493.52v50.58C493.73,343.27,481.63,353.89,466.83,353.6Z"/>
  <path fill="#ff578c" d="M627.49,354.36c-25.71-4-28.3-25.63-20.08-48.81L641,210.23c8.4-24.15,20.25-42.66,48-42.2q20.32,0,30.63,11.18t17.16,31l33.3,95.32c7.94,23,7.13,44.88-19.06,48.81-16.17,2.07-33.62-2.8-36.61-19.83q-1.53-7.62-.38-12.71c.76-3.38,1.48-6.1,2.16-8.13.89-3.21.72-7.57-3.81-7.37H665.11c-4.53-.19-4.8,4.19-3.56,7.37C670.13,339.6,656.23,358.16,627.49,354.36Zm80.08-83.63-13.22-41.44a9,9,0,0,0-1.66-3.94c-1.31-1.86-6.06-1.86-7.37,0-1.67.76-13.85,43.13-14.87,45.38Z"/>
  <path fill="#ff578c" d="M813.06,354.36c-17.5.16-26-12.17-25.93-29V206.16q0-13.22,5-21.48c6.47-11.07,18-15.83,30.38-15.89,21.52.43,32.25,11.13,38.64,33.3l27.45,93.8h4.07V198.28q0-13.47,6.86-21.23c8.17-10.36,31.45-10.35,39.28,0q6.48,7.75,6.48,21.23v114.9c.11,25.84-10.68,41.42-35.84,41.69-24.34,0-34.9-13.51-41.69-36.1L849.67,257c-.64-2.85-2.21-6.91-5.59-6.86a3.83,3.83,0,0,0-3.82,2.16,10.87,10.87,0,0,0-1,4.7v68.38C839.25,342.34,830.78,354.54,813.06,354.36Z"/>
  <path fill="#ff578c" d="M1018,239.71l38.14-53.89c11.37-16.94,28.48-22.27,43.72-10.68,9.16,7,11.25,19.24,7.12,30.26q-3.32,9.15-13.22,17.28L1051.26,257v5.34a106.58,106.58,0,0,1,19.06,2,44.37,44.37,0,0,1,19.83,9.15c17.73,13.09,23.91,31.27,23.64,54.4,0,16.67-9.32,27.69-26.69,27.46q-13.21,0-20.21-7.5t-7-20q0-14-4.45-22.24c-5.64-10.82-16.15-15.83-27.84-15.89h-12.45V329.7c.21,14.84-11.89,25.47-26.69,25.17-14.81.3-26.91-10.33-26.7-25.17V195.23a26,26,0,0,1,7.38-18.81c8.94-10.25,30.41-10.07,39-.13a26,26,0,0,1,7,18.43v44.49Z"/>
  <path fill="#ff578c" d="M592.67,289.34c-2.8-2.28-6.45-4-9.95-3.1s-5.85,3.77-9.16,4.75c-5.21,1.55-10.68-2.36-13.23-7.17-4.76-9-2.92-23.61-13.81-28.3-2.26-.88-4.75-1-7.1-1.61a17.34,17.34,0,0,1-12.33-13.54H493.53v-47c0-15-11.18-26.1-26.94-25.67-15.32-.35-26.88,11.15-26.7,26.17V328.32c-.23,14.87,12.2,25.47,26.95,25.17,14.81.3,26.9-10.33,26.69-25.17V277.74h47.28v50.58c-.16,15.18,12.58,25.48,27.71,25.17,14.38.28,26.47-10.62,26.18-25.17V291.16C594.05,290.53,593.38,289.91,592.67,289.34Z"/>
  <path fill="#ff578c" d="M406,506.47c-8.95-17.9-5.2-38,12.2-46,17.24-7.37,35.32,1.51,41.44,20.59,4.06,10.94,4.69,26.27,7,38a42.94,42.94,0,0,0,5.59,15.76q3.94,6.24,12.33,6.23T497,534.81a41.73,41.73,0,0,0,5.72-15.76c3.63-20.47,2.85-49.59,24.53-58.72,15.44-6.82,34.33,1.18,39.15,17.79,4.85,13.44-3.13,32.28-13.35,43.73-14.66,16.78-31.63,31.87-41.82,53v43.47a22.28,22.28,0,0,1-7.62,17.29c-9.62,9.13-28.27,9.17-38,0a22.11,22.11,0,0,1-7.75-17.29V574.85c-7.05-14.84-17.31-27-28-38.13C420.81,527,411.35,518.18,406,506.47Z"/>
  <path fill="#ff578c" d="M651,643.23c-75.87,2.63-100.36-83.06-74.48-142,25.32-60.76,123.46-60.92,148.71,0C751.14,559.68,726.53,646.12,651,643.23Zm-52.11-97.61c.52,27,25.87,30,52.11,30.25,26.26-.19,51.32-3.3,51.86-30.25-.2-26.47-26.41-28.68-51.86-29C625.65,516.93,599,519.14,598.91,545.62Z"/>
  <path fill="#251645" d="M825.66,643.23c-29.1-.31-59.37-10.71-71-39.65q-6.23-14.49-6.23-35.85V481.56c-1-23.69,29.45-30.36,45.25-18.18q8.13,6,8.14,18.18v74.22c-.31,21.37,10.15,34.93,30.5,34.07,31.47-2.72,26-34,20-56.18-2.55-9.48-5.77-16.61-8-25.55-3.35-13.3-4.53-31.07,4.7-40.93,10.12-12.8,34.4-13.19,44.36-.38q7.88,9.4,7.88,28.47v72.45q0,21.36-6,36C883.8,633.11,855.16,643.4,825.66,643.23Z"/>
  <rect width="59.63" height="70.29" x="272.6" y="724.56" fill="#ff9978"/>
  <path fill="#251645" d="M272.14,778.67a.46.46,0,0,1,.46-.47c3,0,19.74,0,33.87-.28,10.67-.2,18.57-6,22.53-9.4s11.72-7,20.68.45,12.82,19.32,31,24.27c21.5,5.88,13.09,29.5,12,32.4,0,.93-119.78-.06-120.13.29a.46.46,0,0,1-.46-.47Z"/>
  <path fill="#fff" d="M297.61,830.23a1,1,0,0,1-1-1c0-14.67-11.33-25.59-24.57-24.28a1,1,0,0,1,0-2c14.32-1.32,26.58,10.54,26.57,26.29A1,1,0,0,1,297.61,830.23Z"/>
  <path fill="#fff" d="M344,825.18a1,1,0,0,1-1-.92c-2.11-19.45,10.21-35.45,29.4-35.5H376a1,1,0,0,1,0,2c-19.49-1.59-33.17,13.3-31,33.33a1,1,0,0,1-.91,1.08Z"/>
  <path fill="#ffc940" d="M272.56,822.69H395.8a6.3,6.3,0,0,1,0,12.59H272.56C264.27,835,264.2,823,272.56,822.69Z"/>
  <path fill="#29bbf5" d="M231.11,492.35l38.49,94.59c18.38,45.17,94.84,17,72.48-29.5-11.1-23.07-34.16-68.82-46-91.53C275.78,426.94,213.8,449.8,231.11,492.35Z"/>
  <path fill="#29bbf5" d="M269.4,417.91c12.86,18.07,19.15,32.47,27.15,48.66,1.37,2.79.44,6.13-2.43,7.29l-60.34,24.56L193,400.65C227.44,386.52,248.9,389.09,269.4,417.91Z"/>
  <path fill="#29bbf5" d="M270.32,581.91,258.79,740.56c15.34,19.49,68.82,20.05,87.54,6.36l2-159.34C349.1,530.47,274.38,526.12,270.32,581.91Z"/>
  <path fill="#251645" d="M290.68,456.64c-25.83-6.91-29-34.69-28.92-34.86a1,1,0,0,1,2-.18c0,.26,2.68,26.06,27.2,33.08A1,1,0,0,1,290.68,456.64Z"/>
  <rect width="59.63" height="70.29" x="154.54" y="724.56" fill="#ff9978"/>
  <path fill="#251645" d="M154.07,778.67a.47.47,0,0,1,.46-.47c3,0,19.75,0,33.87-.28,10.67-.2,18.58-6,22.53-9.4s11.73-7,20.69.45,12.81,19.32,30.95,24.27c21.51,5.88,13.1,29.5,12,32.4,0,.93-119.78-.06-120.12.29a.47.47,0,0,1-.47-.47Z"/>
  <path fill="#fff" d="M179.55,830.23a1,1,0,0,1-1-1c0-14.67-11.34-25.59-24.58-24.28a1,1,0,0,1,0-2c14.32-1.32,26.58,10.54,26.58,26.29A1,1,0,0,1,179.55,830.23Z"/>
  <path fill="#fff" d="M226,825.18a1,1,0,0,1-1-.92c-2.1-19.45,10.21-35.45,29.4-35.5h3.55a1,1,0,0,1,0,2c-19.52-1.63-33.14,13.29-31,33.33a1,1,0,0,1-.91,1.08Z"/>
  <path fill="#ffc940" d="M154.49,822.69H277.73a6.3,6.3,0,0,1,0,12.59H154.49C146.2,835,146.13,823,154.49,822.69Z"/>
  <path fill="#29bbf5" d="M227.58,516.43V622.27c0,50.54-81.44,53.36-78.24,0,1.58-26.49,5.69-79.41,8.1-105.84C161.56,471.08,227.58,468.81,227.58,516.43Z"/>
  <path fill="#29bbf5" d="M166.6,454.46c-6.34,19.32-7.45,43.41-9.18,61.53a5.16,5.16,0,0,0,5,5.84h65.14l1-105.94C191.25,415.79,176.2,425.23,166.6,454.46Z"/>
  <path fill="#251645" d="M160.24,482.56a1,1,0,0,1,0-2c36.43-.62,43.29-36.57,42.51-53.14a1,1,0,0,1,2-.12c1.08,18-7.12,54.67-44.43,55.26Z"/>
  <path fill="#29bbf5" d="M227.58,622.27V746.68c-16.7,14.34-70.08,11.74-87.77,0,0,0,7.15-93.31,9.53-124.41C152.75,577.67,227.58,578.51,227.58,622.27Z"/>
  <path fill="#ff9978" d="M330.78,410.23c-14.48-1.35-22.25-16.91-12.73-29,14.49-19.45,30.5-42.48,46.6-59.62,18.26-19.5,43.24-13.7,51.44,7.37,4,11.21.66,23-9.13,32.41-21.1,20.25-58,43.43-67.35,47.39A18.46,18.46,0,0,1,330.78,410.23Z"/>
  <path fill="#ff9978" d="M328.56,410a27,27,0,0,1-11.06-5c-19.83-14.32-35.59-26.41-52.89-42.45-17.84-16.59-16.15-36.54.34-47a28.08,28.08,0,0,1,35,5.23c24.63,26.3,35.3,45.32,45.4,61.5a19.33,19.33,0,0,1,2.41,14.77C345.45,405.78,338.66,411.52,328.56,410Z"/>
  <path fill="#ffc940" d="M278.78,308.8c29.55,3.53,53.79,40.9,53.79,40.9-2.63,19.31-34,40.77-47.06,41C226.33,344.59,251.78,305.58,278.78,308.8Z"/>
  <path fill="#ff9978" d="M425.28,360.69l-15-62.51s-12.75-7.49-24.81,1.16c-20.33,14.59-21.31,26.41-21.31,26.41l10.23,32.37C386.57,364.61,411.79,367.74,425.28,360.69Z"/>
  <path fill="#ff9978" d="M416.17,323.46c5-8.76-1-17.09-1-17.09s10.23-7,9.22-16.86-8-11.37-13.78-5.85-14,7.31-18.45,14.11-4.16,23-1.2,27.73C393.63,329.72,410.55,333.29,416.17,323.46Z"/>
  <polygon fill="#ff9978" points="229.3 289.7 244.04 290.65 246.04 308.62 224.98 307.25 229.3 289.7"/>
  <path fill="#251645" d="M235.75,297.67a25.81,25.81,0,0,0,9.2,1.16l-.91-8.17-14.74-1-.74,3S230.29,295.77,235.75,297.67Z"/>
  <path fill="#251645" d="M276.21,253.69a7.61,7.61,0,0,1-7.61,7.61c-10.08-.35-10.07-14.87,0-15.22A7.61,7.61,0,0,1,276.21,253.69Z"/>
  <path fill="#ff9978" d="M215,245.61c-.4,3.18-2.35,16.68-1.15,25.08,1.27,8.91,7.48,19,15.07,22.13,12.4,5.1,21.89,2.89,28.22-1.31,12.14-8.07,9-45.5,9-45.5Z"/>
  <path fill="#251645" d="M216.4,234.8l7.92,2.71c1.91,11.21-2,25.5-7.75,28.45l-8.5.12C201.93,260.48,199.24,239.09,216.4,234.8Z"/>
  <path fill="#251645" d="M241,233.57a14.11,14.11,0,0,1-14.11,14.11c-18.72-.74-18.72-27.49,0-28.23A14.12,14.12,0,0,1,241,233.57Z"/>
  <path fill="#251645" d="M250.37,240.17a14.11,14.11,0,0,1-14.11,14.11c-18.73-.74-18.72-27.49,0-28.23A14.12,14.12,0,0,1,250.37,240.17Z"/>
  <path fill="#251645" d="M272.42,241.52a14.11,14.11,0,0,1-14.11,14.11c-18.72-.74-18.72-27.48,0-28.22A14.11,14.11,0,0,1,272.42,241.52Z"/>
  <path fill="#251645" d="M260.14,233.57A14.11,14.11,0,0,1,246,247.68c-18.73-.74-18.72-27.49,0-28.23A14.12,14.12,0,0,1,260.14,233.57Z"/>
  <path fill="#251645" d="M277.93,237.84c0,7.79-6.77,14.11-15.12,14.11-20.07-.75-20.06-27.47,0-28.23C271.16,223.72,277.93,230,277.93,237.84Z"/>
  <path fill="#251645" d="M238.72,260.9c-.12,0-.24,0-6.68-1.56l-3.36-.79a1.47,1.47,0,0,1,.64-2.87l9.85,2.31A1.48,1.48,0,0,1,238.72,260.9Z"/>
  <path fill="#251645" d="M251.91,261.76a1.48,1.48,0,0,1,0-2.94v0c1.11-.16,9-1,10.31-1.06a1.48,1.48,0,0,1,0,2.94l-3.39.34c-5.2.54-6.68.69-6.86.69Z"/>
  <path fill="#fff" d="M249.38,269.91a5.76,5.76,0,1,0,11.49.75A5.76,5.76,0,1,0,249.38,269.91Z"/>
  <path fill="#251645" d="M253.52,270.18c-.32,6.65,5.12,7,5.66.37C259.5,263.9,254.06,263.54,253.52,270.18Z"/>
  <path fill="#fff" d="M227.14,268.46a5.76,5.76,0,1,0,11.49.75A5.76,5.76,0,1,0,227.14,268.46Z"/>
  <path fill="#251645" d="M231.56,268.75c-.33,6.65,5.11,7,5.65.37C237.54,262.47,232.1,262.11,231.56,268.75Z"/>
  <path fill="#251645" d="M240.49,288c-1.93,0-4.23-.78-6.24-3.59a.75.75,0,1,1,1.23-.87c3.63,5.09,8.26,2.12,8.45,2a.75.75,0,0,1,.83,1.25A8.53,8.53,0,0,1,240.49,288Z"/>
  <path fill="#251645" d="M241.76,281.25a.75.75,0,0,1-.13-1.48c2.45-.52,6-1.69,3.19-3.93-3.25-2.86-1.91-8-1.86-8.18a.76.76,0,0,1,.92-.53.75.75,0,0,1,.53.92c0,.05-1.14,4.42,1.4,6.66C250.34,278.74,244,281,241.76,281.25Z"/>
  <path fill="#ff9978" d="M209.67,259.72c3.92-1.94,8.89.14,11.11,4.63,4.95,11-8.49,17.61-14.19,7C204.37,266.86,205.75,261.65,209.67,259.72Z"/>
  <path fill="#251645" d="M218.26,269.1a.76.76,0,0,1-.73-.58c-.05-.2-1.11-4.45-6.57-4.57a.75.75,0,0,1,0-1.5c6.67.14,8,5.68,8,5.74A.75.75,0,0,1,218.26,269.1Z"/>
  <path fill="#ffc940" d="M269.3,307.61l-67.25-4.38c-19.6-1.27-36.39,12.56-35.53,29.71l4.55,90.92c33.44,12.6,95.82,17.44,113.31,7.37l16.31-89.56C303.76,324.78,288.91,308.88,269.3,307.61Z"/>
  <path fill="#fff1c2" d="M294.51,375.64l-1.5,8.2c-11.44-16.06-19.69,1.85-33.69,1.76-6.77,0-11.88-4.13-16.82-8.1-9.42-8-13.9-8.77-24.5-2.35-25.27,15.66-25.27-10.07-49.61-4.85l-.33-6.62a33.43,33.43,0,0,1,26.18,6.06c7.88,5.87,12.13,4.67,20.55-.29,4.78-2.7,9.72-5.49,15.58-5.2,6.51.35,11.47,4.3,16.24,8.15,4.24,3.41,8.25,6.64,12.74,6.65,3.47,0,7-1.91,10.67-3.93C278.26,370.17,286.81,367.88,294.51,375.64Z"/>
  <path fill="#fff1c2" d="M290.33,398.58l-1.41,7.71c-5.73-6.91-10.85-5.17-18.15-.93-12.46,7.48-19.92,5.81-30.65-3.36-9.44-8-13.91-8.78-24.5-2.34-23.84,14.79-24.71-7.24-46-5.43l-.32-6.54a33.67,33.67,0,0,1,22.57,6.54c7.89,5.9,12.14,4.67,20.56-.27,4.78-2.7,9.73-5.49,15.57-5.21,6.52.34,11.48,4.3,16.26,8.15,4.23,3.41,8.24,6.63,12.74,6.65,3.46,0,7-1.9,10.65-3.94C274.65,395.42,283,392.45,290.33,398.58Z"/>
  <path fill="#251645" d="M288.74,406.91a1,1,0,0,1-1-1.18l8.43-45.89a1,1,0,0,1,2,.36l-8.44,45.89A1,1,0,0,1,288.74,406.91Z"/>
  <path fill="#251645" d="M292.13,390.92a1,1,0,0,1-.51-1.87l19.12-11.22a1,1,0,0,1,1,1.73l-19.12,11.22A1,1,0,0,1,292.13,390.92Z"/>
  <path fill="#ff9978" d="M223.84,304.65c1.4,10.79,9.49,16.73,15.77,15.73,6-.45,9.47-6.31,7.54-14.21Z"/>
  <path fill="#ff9978" d="M200.89,312.57c-12.15-7.63-28.59-3.89-39.26,6.13-31.52,28.84-46.45,49.56-60.33,67.27a23.11,23.11,0,0,0-5.19,16c1.92,17,19.3,17,31.8,8.18,24.19-15.78,43.55-29.09,65.27-46.71C213.9,346.82,218.44,324.7,200.89,312.57Z"/>
  <path fill="#ffc940" d="M187.94,303.23c-29.27,2.3-55.46,38.33-55.46,38.33,1.36,19.23,30.79,41.75,43.65,42.54C237.21,340.78,214.67,301.13,187.94,303.23Z"/>
  <path fill="#251645" d="M165.49,386.58a1,1,0,0,1-.56-1.82l35-23.8a1,1,0,1,1,1.13,1.65l-35,23.8A1,1,0,0,1,165.49,386.58Z"/>
  <path fill="#ff9978" d="M205.56,449.21c9.77,2.5,13.31-5,13.31-5s16.18,13.35,27.25,5.7c8.17-5.65,6.65-12.21-.86-14.95s-12.77-9.34-20.82-10.3-21.82-4-26.45,4.69C195.65,433.76,198.15,447.32,205.56,449.21Z"/>
  <path d="M563.18,292.31,490.65,191.14a5.5,5.5,0,0,0-8.94,6.41l72.53,101.17a5.51,5.51,0,0,0,7.68,1.27h0A5.51,5.51,0,0,0,563.18,292.31Z"/>
  <path d="M146.5,505.32h-.07l.25-2-.12,1-.34-.94c5-2.35,222.51-158.7,337.55-241.59L446,209.3l32.88-25.57,23.24,31.08-1.6,1.2-22-29.45L448.7,209.69l37.86,52.56c-2.35,1.69-84.75,61.06-169.37,121.83C152.73,502.17,147.34,505.32,146.5,505.32Z"/>
  <path d="M150.28,509.65,142.82,499c54.48-38.22,199.29-142,307.88-220.17l7.59,10.55C349.67,367.62,204.81,471.41,150.28,509.65Z"/>
  <rect width="43.07" height="117.66" x="500.64" y="186.32" fill="#ffc940" rx="10.15" transform="rotate(-35.64 522.122 245.133)"/>
  <path fill="#ff9978" d="M175,416.49c11.44-1,35.66,7.82,50.5,10.46l-41,62.8s-9.12-4.61-20-16c-14.75-15.51-12.73-22.86-12.73-22.86Z"/>
  <path fill="#ff9978" d="M203.55,477.67c5.69,3.22,19,8.31,14.13,18.31-5.58,11.41-13.21,7.35-21.78,3.42-9.49-4.36-14.58-9.53-20.37-15.32,2.59-6.86,4.91-13.71,7.55-20.45A161.67,161.67,0,0,0,203.55,477.67Z"/>
  <path fill="#ff9978" d="M215.66,462.66c6.11,3.43,20.39,9,15.51,19-5.56,11.41-13.76,7.06-22.95,2.81-10.18-4.71-15.72-10.11-22-16.17,2.54-6.89,4.79-13.78,7.38-20.54A186.65,186.65,0,0,0,215.66,462.66Z"/>
  <path fill="#ff9978" d="M226.05,447.22c6.72,3.42,22.25,8.93,17.77,19.14-5.1,11.62-14.09,7.29-24.12,3.08-11.13-4.68-17.37-10.1-24.48-16.18,2.21-7,4.11-14,6.38-20.9A214.87,214.87,0,0,0,226.05,447.22Z"/>
  <path fill="#251645" d="M219.89,491A73.87,73.87,0,0,1,203,481.64a1,1,0,0,1,1.24-1.57,77.12,77.12,0,0,0,16.08,9A1,1,0,0,1,219.89,491Z"/>
  <path fill="#251645" d="M232.49,476c-11.16-4.33-20.87-12.8-21.09-13a1,1,0,0,1,1.31-1.51,86.44,86.44,0,0,0,20.17,12.55A1,1,0,0,1,232.49,476Z"/>
  <path fill="#ff9978" d="M110,383.51c-14,3.73-19.14,20.36-7.75,30.68,17.5,16.78,37.1,36.86,55.82,51.09,21.23,16.22,44.91,6.36,49.51-15.77,2.07-11.72-3.17-22.82-14.37-30.46-24.16-16.48-64.43-33.23-74.26-35.6A18.56,18.56,0,0,0,110,383.51Z"/>
  <path fill="#ff9978" d="M437.61,320.76a11.53,11.53,0,0,0-10.3-13.39c-13.12-1.18-27.2-.52-27.86,6.53-1.15,5.47.24,8.68,6.14,11.32,4,1.81,11.37,3.61,18.39,5A11.56,11.56,0,0,0,437.61,320.76Z"/>
  <path fill="#ff9978" d="M434.57,339.15a11.61,11.61,0,0,0-10.06-13.44c-12.43-1.47-28.09-2-30.14,6.26-1.28,6.08.59,9.37,8.28,12.19A132.87,132.87,0,0,0,421,348.69,11.61,11.61,0,0,0,434.57,339.15Z"/>
  <path fill="#ff9978" d="M429.6,356.11a11.51,11.51,0,0,0-10.46-13.35c-11.63-.9-25.3-.62-27,7.12-1.66,8.74,3,11.64,22,15.28C421,367.29,428.46,363.39,429.6,356.11Z"/>
  <path fill="#251645" d="M416.25,366.56c-17.44-3-27.7-6.22-25.08-16.87.66-3,2.93-5.24,6.76-6.6-4.39-2.59-5.67-5.94-4.54-11.33.88-3.54,3.93-5.91,9.1-7.07-3.91-2.53-5.09-5.87-4-10.95.84-8.15,16.19-8.51,28.94-7.37a1,1,0,0,1,.9,1.09,1,1,0,0,1-1.08.9c-16.55-1.48-26.3.57-26.78,5.63v.11c-1.68,7.25,2.7,9,8.74,11.64-6.08.59-12.74,1.73-13.83,6.47-1.63,7,2.36,8.9,8.46,11.43-4.82,1-9.89,2.35-10.68,6.45-1.39,7.37,1.35,10.28,21.21,14.09l2.1.39A1,1,0,0,1,416.25,366.56Z"/>
  <path fill="#251645" d="M419.86,349c-7.16-3.08-20.09-4.57-20.19-4.48a1,1,0,0,1,.18-2c.51,0,12.78,1.18,20.42,4.55A1,1,0,0,1,419.86,349Z"/>
  <path fill="#251645" d="M424.18,330.53C417,327.45,404.09,326,404,326.05a1,1,0,0,1,.18-2c.52,0,12.79,1.18,20.42,4.55A1,1,0,0,1,424.18,330.53Z"/>
  <path fill="#ff578c" d="M801.76,481.56v39.85a11,11,0,0,1-5.64-3.75c-1.63-2.09-2.85-5-5.47-5.46-2.85-.47-5.1,2.46-6,5.22s-1.3,5.9-3.48,7.79c-2.93,2.54-7.83,1.3-10.3-1.7s-3-7.09-3.11-11,.27-7.84-.73-11.58-3.79-7.35-7.64-7.9c-3.69-.5-7.29,1.82-11,1.42.24-11.5-2-23.78,8-31.11C772,451.2,802.71,457.86,801.76,481.56Z"/>
  <path fill="#29bbf5" d="M957.89,439.88a27.23,27.23,0,0,0,9.38-7.72c15.43-19,27.51-34.74,40.05-54.72,12.93-20.65,6.11-39.48-12.52-45.27a28.1,28.1,0,0,0-32.45,14.13c-17,31.8-22.32,52.94-27.87,71.18A19.28,19.28,0,0,0,936,432.37C940.47,440.17,948.52,444,957.89,439.88Z"/>
  <path fill="#ff9978" d="M950.9,441.38C964.41,436,967.49,418.9,955,410c-19.38-14.59-41.22-32.2-61.49-44.11-23-13.58-45.34-1-47.29,21.53-.66,11.89,5.85,22.29,17.88,28.54C890,429.46,932,441.32,942,442.5A18.41,18.41,0,0,0,950.9,441.38Z"/>
  <path fill="#29bbf5" d="M883.56,436.39c-12.18-26,13.83-68.59,30.88-66.61,3.06,3.93,6.34,9.29,16.87,17,14.25,10.48,21.25,15.91,27.56,22.94,9.93,11.06,7.08,26.85-4.76,32.25-9.5,4.32-23.89.69-45.86-3.48C897,436.37,890.55,435.57,883.56,436.39Z"/>
  <path fill="#fff" d="M924.58,381.37c.16,9.06-6.54,14.13-13.74,18-4.25,2.42-8.27,4.71-9.93,8.42-1.49,3.32-.92,7.44-.3,11.77.87,5.78,1.59,12.12-2.19,17.3a72.87,72.87,0,0,0-7.73-.73c5.37-3.69,5-9.27,4-15.73-.72-5-1.44-10.17.77-15.08,2.47-5.48,7.53-8.39,12.43-11.18,4.35-2.48,8.45-4.84,10-8.68,1.24-3.09.64-7.12.14-11.05A59,59,0,0,0,924.58,381.37Z"/>
  <path fill="#ff9978" d="M837.32,354.89l3.25,62.55c18.1,2.51,46-7.28,46.76-36l.24-13.8C877.89,356,860.92,352,837.32,354.89Z"/>
  <path fill="#ff9978" d="M817.44,380.15c-19.26,1.22-24.53-.42-25.11-9.3-2.42-15.42,60.73-17.62,61.67-16.92l-3.19,21.55A210.48,210.48,0,0,1,817.44,380.15Z"/>
  <path fill="#ff9978" d="M813.89,401.33c-19.27,1.21-24.53-.43-25.11-9.31-2.42-15.41,60.73-17.61,61.67-16.92l-3.19,21.56A210.48,210.48,0,0,1,813.89,401.33Z"/>
  <path fill="#ff9978" d="M825.56,420.11c-19.24,1.6-24.54.07-25.3-8.8-2.73-15.37,60.37-18.84,61.32-18.17l-2.75,21.62A211.59,211.59,0,0,1,825.56,420.11Z"/>
  <path fill="#251645" d="M801.31,382.22a1,1,0,0,1-.45-1.89c9.63-4.78,30.4-5.89,31.28-5.94a1,1,0,0,1,.1,2C832,376.3,810.46,377.75,801.31,382.22Z"/>
  <path fill="#251645" d="M806.36,403.73a1,1,0,0,1-.49-1.87c8.35-4.66,25.71-7,26.45-7.12a1,1,0,0,1,.26,2C832.36,396.62,814.26,399.47,806.36,403.73Z"/>
  <path d="M901.86,309.35c-3.37-4.79-8.59-6.1-14.16-5.2h0a33.54,33.54,0,0,0-15.24,7.35h0l-.17.15C863,320,856,334.37,849.81,345.45c-7,12.67-11,25-27.19,23.75-8.49-.3-15.88-3.71-19.22,0-2.72,3.1-17.78,20.82-23.29,27.33L827,434.82l.17-.18.42-.46c3.5-4,8.53-9.74,12-13.94,0,0,0,0,0,0s0,0,0,0l.07-.08c3.78-4.56,7.53-9.28,9.82-12.7,4-6-4.36-10.55-4.19-23a16.71,16.71,0,0,1,.58-4.2c2-7,7.28-10,10.76-12.77,2-1.68,13-9.41,22.65-16.81h0c1.12-.83,2.23-1.73,3.33-2.57h0a108.47,108.47,0,0,0,9.91-8.53C899.5,332.14,908.68,319.61,901.86,309.35Z"/>
  <path fill="#fff1c2" d="M788.25,393.11a88,88,0,0,0,42,34.35c.12.05-10.39,19.58-21.27,47.25-.26.69-14.56-4.25-14.46-4.49-.53-1.25-1-2.5-1.53-3.76-.44.47-.89.93-1.34,1.4a127.43,127.43,0,0,1-12.44-9.35c-1.43-.75-2.86-1.53-4.27-2.34q-3.54-3.59-6.78-7.42c-1-.3-2-.61-3-.94q-3.79-4.55-7.15-9.43c-.16.71-.31,1.42-.47,2.13A130,130,0,0,1,748,429C747.49,428.33,772.83,398,788.25,393.11Z"/>
  <path fill="#f0e1b4" d="M793,466.46c-.32-.12,8.89-26.29,22.48-45.19l1.58.94Q804.56,444.1,793,466.46Z"/>
  <path fill="#f0e1b4" d="M765.1,447.81c-.12-.11,18.71-23.43,35-39.28.51.39,1,.78,1.54,1.15q-17.17,19.38-34.22,38.87C766.67,448.31,765.89,448.07,765.1,447.81Z"/>
  <path fill="#f0e1b4" d="M757.47,440.5l.48-2.12c2.64-5.86,19.82-29.87,35.77-35.8-.5-.84-1-1.69-1.45-2.55,0,0-7.31,5.45-14.9,11.83-8.84,7.37-20.88,20.79-22.38,25.87C755.81,438.67,756.63,439.59,757.47,440.5Z"/>
  <path fill="#f0e1b4" d="M805,413.8s-14.8,15.92-16.59,19.73c.06.05,15.43-15.8,18.77-18C806.44,415,805.72,414.39,805,413.8Z"/>
  <path fill="#f0e1b4" d="M802.87,473.24c-.12-.05,10.64-25,15.86-31.57a95,95,0,0,0-17.5,31.05Z"/>
  <path fill="#ffc940" d="M780.1,396.5l13.15-15.42,46.45,39c-1.6,2-10.63,12.68-12.7,14.72Z"/>
  <path fill="#ff9978" d="M867.77,381.52a26.26,26.26,0,0,1-16-6.19s-9.79,7.57-18.88,3.57-8.35-11.12-1.31-14.92,11.28-11.09,19.11-13.2,23.16,3.14,26.75,7.42C880.68,362,879.09,381.68,867.77,381.52Z"/>
  <path fill="#251645" d="M867.77,382.52c-9.2-.59-14.39-4.38-16.06-5.89-2.48,1.7-11,6.79-19.19,3.18-9-3.7-9.88-12.19-1.37-16.71,7-3.82,11.19-11.08,19.32-13.28,7.88-2.12,23.75,2.95,27.77,7.74a1,1,0,0,1-1.53,1.29c-3.34-4-18.14-9.14-25.72-7.1s-12,9.46-18.9,13.12-6.23,10,1.24,13.11c9.12,3.74,17.91-3.55,18.61-4l.62.69s4.73,5.13,15.28,5.87A1,1,0,0,1,867.77,382.52Z"/>
  <rect width="59.63" height="79.38" x="1010.27" y="724.68" fill="#ff9978" transform="rotate(-.21 1054.463 774.063)"/>
  <path fill="#ffb243" d="M1081.45,516.39l.4,105.84c.19,50.54-81.25,53.66-78.25.29,1.49-26.5,5.4-79.43,7.71-105.87C1015.26,471.29,1081.28,468.78,1081.45,516.39Z"/>
  <path fill="#ffb243" d="M1020.24,454.65c-6.26,19.35-7.29,43.44-9,61.56a5.15,5.15,0,0,0,5,5.82l65.14-.24.57-105.94C1044.75,415.89,1029.73,425.38,1020.24,454.65Z"/>
  <path fill="#ffb243" d="M1081.85,622.23l.46,124.41c-16.65,14.41-70,12-87.77.33,0,0,6.8-93.34,9.06-124.45C1006.85,577.91,1081.69,578.47,1081.85,622.23Z"/>
  <path fill="#251645" d="M1074.24,793.06s-26.1.29-41.66,0c-10.67-.2-3.32-14.78-13.85-24.54-3.83-3.56-12.75-8.09-20.68.45-8.72,9.38-12.82,19.32-31,24.27-22.92,6.27-11.85,32.69-11.85,32.69h120.47Z"/>
  <path fill="#29bbf5" d="M1075.17,822.69H951.93a6.3,6.3,0,0,0,0,12.59h123.24C1083.46,835,1083.53,823,1075.17,822.69Z"/>
  <path fill="#fff" d="M1010.94,792.74a1,1,0,0,1-.77-.36c-6.68-8-22.15-11.52-22.3-11.55a1,1,0,0,1,.43-2c.66.15,16.29,3.7,23.41,12.23A1,1,0,0,1,1010.94,792.74Z"/>
  <path fill="#fff" d="M998.88,799.64a1,1,0,0,1-.79-.39c-5.93-7.69-19.65-11.06-19.79-11.1a1,1,0,0,1,.47-1.94c.59.14,14.55,3.58,20.9,11.82A1,1,0,0,1,998.88,799.64Z"/>
  <path fill="#fff" d="M1003.1,800.05a3.2,3.2,0,0,1-6.39,0A3.2,3.2,0,0,1,1003.1,800.05Z"/>
  <path fill="#fff" d="M1013.63,792a3.2,3.2,0,0,1-6.39,0A3.2,3.2,0,0,1,1013.63,792Z"/>
  <rect width="59.63" height="79.38" x="1154.59" y="615.04" fill="#ff9978" transform="rotate(-53.57 1184.387 654.724)"/>
  <path fill="#251645" d="M1225.32,647.8s-15.27,21.17-24.74,33.52c-6.5,8.47-13.87-6.1-28-3.43-5.14,1-14.08,5.45-11.92,16.91,2.37,12.58,7.93,21.78,1.15,39.32-8.58,22.16,19.25,29,19.25,29l71.55-96.94Z"/>
  <path fill="#29bbf5" d="M1249.71,664.65l-73.18,99.15c-4.73,6.81,5,14,10.12,7.48l73.19-99.16C1264.56,665.32,1254.88,658.09,1249.71,664.65Z"/>
  <path fill="#fff" d="M1163.52,710.28a1,1,0,0,1-.65-1.76c.51-.44,12.65-10.91,23.74-11.57a1,1,0,1,1,.11,2c-10.41.63-22.42,11-22.54,11.09A1,1,0,0,1,1163.52,710.28Z"/>
  <path fill="#fff" d="M1163.75,722.31a1,1,0,0,1-.64-1.76c.47-.39,11.52-9.58,21.93-9.8a1,1,0,0,1,0,2c-9.7.2-20.57,9.24-20.68,9.33A1.05,1.05,0,0,1,1163.75,722.31Z"/>
  <path fill="#fff" d="M1188.69,709.19a3.19,3.19,0,0,1-3.79,5.14A3.19,3.19,0,0,1,1188.69,709.19Z"/>
  <path fill="#fff" d="M1188.49,696a3.2,3.2,0,0,1-3.8,5.14A3.2,3.2,0,0,1,1188.49,696Z"/>
  <path fill="#ffc940" d="M1083.26,540.46,1192.54,620c2.76,22.68-30.94,64.17-51.66,71l-103.67-87.25C1000,572.44,1044.83,512.48,1083.26,540.46Z"/>
  <path fill="#ffc940" d="M1070.49,454.82l-43.31,96.57c-20.68,46.12,52.49,82,71.4,32,9.39-24.82,27.29-74.79,35.91-99.89C1149.29,440.46,1090,411.37,1070.49,454.82Z"/>
  <path fill="#ffc940" d="M1141.59,445.29c.72,13.89-4.58,28.44-7.76,39.75-.54,1.93-3.26,2.64-6.09,1.37l-59.44-26.65,26.91-62.38C1129.25,412.57,1140.51,424.25,1141.59,445.29Z"/>
  <path fill="#251645" d="M1069.47,258.61c-8.76,4.16-21.56,10.37-31.1,8.8-9.06-1.5-10.91-11.3-21.87-21.14-9.34-8.61-25.28-17.45-44.88-1.78-29,13.54-23.15,48.58-2.42,47.38,7.66-.44,19.76,32.11,19.59,42.36-4.55,24.61,16,20.32,39.24,28.45l-3.87-.69c8.69,12.45,30,7.84,33.07-7.17a16.15,16.15,0,0,1-4.26,13C1155,365.92,1141,226.32,1069.47,258.61Z"/>
  <polygon fill="#ff9978" points="1010.23 301.85 996.83 308.07 1001.44 325.54 1020.59 316.66 1010.23 301.85"/>
  <path fill="#251645" d="M1007.09,311.62a25.69,25.69,0,0,1-8.16,4.4l-2.1-7.95,13.39-6.22,1.78,2.53S1011.49,307.87,1007.09,311.62Z"/>
  <path fill="#ff9978" d="M1007.67,255.57c1.51,2.82,8.22,14.7,10.13,23,2,8.77-.12,20.43-6.07,26.08-9.71,9.23-19.36,10.6-26.79,9-14.23-3.14-24.81-39.18-24.81-39.18Z"/>
  <path fill="#251645" d="M1002.11,247.41l-6.4,5.39c2.26,11.14,11.07,23.05,17.5,23.73l8-3C1024.88,266.13,1019.67,245.21,1002.11,247.41Z"/>
  <path fill="#251645" d="M993.66,250c-.06-.06.59,11,.66,10.85,8.49,15.06,21.9,19.58,21.9,19.58s3.69-3.25,4.21-12.27C1021.28,253.09,1005.07,241.37,993.66,250Z"/>
  <path fill="#ffc940" d="M967.47,240.25a34.37,34.37,0,0,1,26.61-6.76c17.63,3.18,36.42,14.75,36.42,14.75s1.54,5.8-.49,14.35c-1.71,7.26-7.76,12-9.38,13.19a.3.3,0,0,1-.47-.2c-.63-3.44-5.09-24.66-21.81-31.26-21.71-8.58-36.61,6.69-36.61,6.69S961.63,245.11,967.47,240.25Z"/>
  <path fill="#ffc940" d="M1025.69,268.84c4-2.24,11.6-1.94,15.16,1.63-4.25,5.42-13.45,9.76-20.56,5.28Z"/>
  <path fill="#251645" d="M996.79,251A21,21,0,0,0,981,246.54c-7.47.82-23.23,6.09-28,20.86a16,16,0,0,0,2.38,14.93c5.16,6.64,9.26,5.09,9.26,5.09l-1.79-5.17a27.28,27.28,0,0,0,7.54-1,36.67,36.67,0,0,0,6.17-2.42,1.75,1.75,0,0,0,.88-2l-2.09-7.41,4.56,5.33a3.12,3.12,0,0,0,3.87.72,57.4,57.4,0,0,0,8-5.17c2.64-2.1,5.88-4.73,5.88-4.73Z"/>
  <path fill="#251645" d="M991,278.4c.11,0,.21-.11,5.67-3.86,1.48-1,2.71-1.87,2.85-2a1.47,1.47,0,0,0-1.64-2.45l-8.34,5.71A1.48,1.48,0,0,0,991,278.4Z"/>
  <path fill="#251645" d="M979.05,284a1.47,1.47,0,0,0-1-2.75v0c-1.09.26-8.77,2.36-10,2.75a1.48,1.48,0,0,0,1,2.75l3.29-.91c5-1.37,6.48-1.77,6.64-1.83Z"/>
  <path fill="#fff" d="M984.35,290.66a5.76,5.76,0,1,1-10.44,4.84A5.76,5.76,0,1,1,984.35,290.66Z"/>
  <path fill="#251645" d="M980.59,292.4c2.7,6.09-2.24,8.38-5.14,2.39C972.74,288.7,977.69,286.41,980.59,292.4Z"/>
  <path fill="#fff" d="M1004.57,281.27a5.76,5.76,0,1,1-10.44,4.85A5.76,5.76,0,1,1,1004.57,281.27Z"/>
  <path fill="#251645" d="M1000.56,283.14c2.7,6.08-2.24,8.38-5.14,2.38C992.71,279.44,997.66,277.14,1000.56,283.14Z"/>
  <path fill="#251645" d="M996.21,304.87c-1.34-.07-2.06,0-2-1a.74.74,0,0,1,.89-.57c.24.05,5.62,1.13,7.16-4.91a.75.75,0,0,1,1.46.37C1002.34,304.1,998.38,304.87,996.21,304.87Z"/>
  <path fill="#251645" d="M992.94,298.76c-3.08.11-5.34-1.63-3.52-4.92,1.56-3-1.08-6.68-1.1-6.71a.75.75,0,0,1,1.21-.89c.13.18,3.21,4.45,1.22,8.3-1.9,3.22,2.29,2.85,4.39,2.51a.75.75,0,0,1,.29,1.47A14.16,14.16,0,0,1,992.94,298.76Z"/>
  <path fill="#ff9978" d="M1017.71,266.81c-4.35-.39-8.24,3.34-8.69,8.33-.66,12,14.27,13.36,15.76,1.41C1025.23,271.56,1022.06,267.2,1017.71,266.81Z"/>
  <path fill="#251645" d="M1012.81,278.71a.76.76,0,0,1-.74-.64c0-.05-.77-5.69,5.39-8.24a.74.74,0,0,1,1,.41.75.75,0,0,1-.4,1c-5,2.09-4.5,6.45-4.48,6.63A.75.75,0,0,1,1012.81,278.71Z"/>
  <path fill="#29bbf5" d="M985.33,328.73l61.13-28.36c17.82-8.27,38.48-1.43,43.86,14.87l28.59,86.43c-26.63,23.83-83.06,50.86-103,47.79l-47.54-77.63C959.4,357.19,967.51,337,985.33,328.73Z"/>
  <path fill="#fff" d="M1010.15,389.6c-2.25-7.91,4.21-15.14,11.14-15.38,7.42-.27,13.39,7.45,14.06,8.35l.45,1.14-.43-1.15c-.13-1.11-1.11-10.82,4.46-15.73,5.2-4.59,13.37-3.1,18,2.08,10.79,12.18-6.44,45.13-9.65,46.63C1044.67,416.58,1015.56,408.17,1010.15,389.6Z"/>
  <path fill="#29bbf5" d="M1161,340.3a20.74,20.74,0,0,0-10.58-11.54c-18.28-8.74-38.71-19.81-75.74-30-39.88-9.4-55.78,45-7.92,54.16,24.65,5,45.71,6.9,71.61,9.67C1153.79,364.26,1166,354.31,1161,340.3Z"/>
  <path fill="#ff9978" d="M1100.79,438.15c-3.31,9.53-11.5,8.36-11.5,8.36s2.21,20.86-10.28,25.87c-9.22,3.7-13.85-1.19-12-9s-.75-15.8,2.89-23,8.73-20.39,18.51-19.47C1093.38,421.36,1103.3,430.93,1100.79,438.15Z"/>
  <path d="M1153,515.59H1060.2v-22.5a46.41,46.41,0,0,1,92.82,0Zm-90.82-2H1151v-20.5a44.41,44.41,0,0,0-88.82,0Z"/>
  <path d="M1153,515.59H1060.2v-22.5a46.41,46.41,0,0,1,92.82,0Zm-90.82-2H1151v-20.5a44.41,44.41,0,0,0-88.82,0Z"/>
  <path fill="#29bbf5" d="M1151.61,504.87h-90a1.9,1.9,0,0,0-1.89,2.05l7.32,91a1.91,1.91,0,0,0,1.9,1.75h75.35a1.9,1.9,0,0,0,1.89-1.75l7.33-91A1.9,1.9,0,0,0,1151.61,504.87Z"/>
  <path fill="#ff578c" d="M1152.56,504.87h-91.62c-6.86,7.5-2,21.09,10,18.34,5.08-1.17,5.36-5.51,9-5.75,5.69-.08,7.2,6.57,7.29,11.19.18,2.46.44,5,1.69,7.17a8.92,8.92,0,0,0,16-1.36c1.55-4.24-.34-9.19,1.73-13.3,1-2,3.3-3.58,5.54-3.11,5,1.36,4.1,7.73,5.29,11.67.7,2.16,2.57,4.24,4.86,4.13,4.64-.38,5-6.73,8.56-8.76,3-1.7,6.61-.06,10,.32A12.84,12.84,0,0,0,1152.56,504.87Z"/>
  <polygon fill="#fff" points="1149.59 555.55 1148.65 567.21 1064.57 567.21 1063.63 555.55 1149.59 555.55"/>
  <path fill="#ffcd29" d="M1140.49,468.84c-2.54.15-4.42-1.82-6-3.62-15.23-15.82-42.44-15.13-57,1.29-5.5,5.68-14-2.07-8.85-8.1,18.95-21.41,54.44-22.31,74.3-1.68.69.69,1.36,1.4,2,2.12C1148.44,462.57,1145.52,469,1140.49,468.84Z"/>
  <path fill="#ff9978" d="M1099.11,393.11c-8.64,7.57-19,31.16-27.4,43.7l73.73,13.84s3-9.77,2.26-25.49c-1-21.39-7.69-25-7.69-25Z"/>
  <path fill="#ff9978" d="M1123.5,456.08c-1.61,6.33-7.18,19.48,3.44,22.88,12.09,3.86,14.44-4.46,17.54-13.36,3.43-9.87,3.21-17.12,3-25.31-6.75-2.88-13.3-6-20-8.7A161.49,161.49,0,0,1,1123.5,456.08Z"/>
  <path fill="#ff9978" d="M1104.28,454.43c-1.75,6.79-7.61,20.95,3,24.36,12.09,3.88,14.62-5.05,17.91-14.62,3.65-10.61,3.58-18.34,3.57-27.09-6.73-2.94-13.26-6.08-19.93-8.89A185.47,185.47,0,0,1,1104.28,454.43Z"/>
  <path fill="#ff9978" d="M1085.53,452.47c-2.29,7.55-9.29,23.27,1.17,27.11,11.91,4.39,15.15-5.53,19.21-16.16,4.51-11.78,5-20.38,5.69-30.11-6.58-3.31-12.93-6.84-19.46-10A233.6,233.6,0,0,1,1085.53,452.47Z"/>
  <path fill="#251645" d="M1121.09,477.41a1,1,0,0,1-.94-1.36,76.51,76.51,0,0,0,4.63-17.84,1,1,0,0,1,2,.19,77.75,77.75,0,0,1-4.75,18.36A1,1,0,0,1,1121.09,477.41Z"/>
  <path fill="#251645" d="M1101.54,476.12a1,1,0,0,1-.93-1.35,86.16,86.16,0,0,0,4.9-23.25,1,1,0,0,1,2,.1,86.87,86.87,0,0,1-5,23.86A1,1,0,0,1,1101.54,476.12Z"/>
  <path fill="#ff9978" d="M1158.28,338.74c-7.35-12.54-24.74-13-31.64.73-11.49,21.35-25.6,45.6-34.32,67.44-10,24.79,5.88,45,28.44,43.5,11.84-1.14,21.14-9.15,25.51-22,9.42-27.68,14.8-71,14.45-81.07A18.46,18.46,0,0,0,1158.28,338.74Z"/>
  <path fill="#29bbf5" d="M1165,407.67c-23.73,16.19-70.13-3.65-70.93-21.15,3.39-3.68,8.16-7.8,14.1-19.58,8-15.95,12.29-23.83,18.22-31.25,9.34-11.68,25.43-11.18,32.7,0,5.82,8.93,4.56,24,4,46.8C1162.76,394.11,1163,400.74,1165,407.67Z"/>
  <path fill="#fff" d="M1163.15,396.51c-14-12.63-25.23,16.57-45.84-7.06-7.37-8-11.27-9.54-21.23-5.1a60.41,60.41,0,0,0,6.82-8.37c7.73-1.34,14,4,18.75,9.29,7.68,8.41,11.69,9.61,22.09,5,5.91-2.6,13.07-4.87,19.21-1.2C1163,391.79,1163,394.24,1163.15,396.51Z"/>
  <path fill="#251645" d="M999.48,423.63a1,1,0,0,1-.86-.47L977.38,388.3a1,1,0,0,1,1.71-1l21.24,34.85A1,1,0,0,1,999.48,423.63Z"/>
  <path fill="#251645" d="M973.8,425.6a1,1,0,0,1-.8-1.6l14.51-19.67a1,1,0,0,1,1.61,1.18l-14.51,19.68A1,1,0,0,1,973.8,425.6Z"/>
  <path fill="#ff9978" d="M1040.19,330c-3.56,6.94-42.71,29.28-52.45,17.45-4.12-5-5.71-14.73-5.66-17.26l54.38-25.23C1038.93,308.7,1043.78,323,1040.19,330Z"/>
  <path fill="#251645" d="M1097.77,382.56A1,1,0,0,1,1097,381l14.78-21.4-29.81-2.84a1,1,0,0,1,.19-2l33.2,3.16-16.72,24.21A1,1,0,0,1,1097.77,382.56Z"/>
  <path fill="#6278f5" d="M523.94,642.43l-9.41,2.12a1137,1137,0,0,0,38.31,171.83,3.6,3.6,0,0,0,4.22,2.45l2.93-.66a3.59,3.59,0,0,0,2.77-4A1138.23,1138.23,0,0,0,523.94,642.43Z"/>
  <path fill="#ffc940" d="M530.46,664.29A75,75,0,0,1,518,667c-.19-1.13-.37-2.26-.55-3.39a75.39,75.39,0,0,1,12.05-2.76Z"/>
  <path fill="#ffc940" d="M561.65,806.79c.19,1.21.38,2.42.56,3.64a76.51,76.51,0,0,1-10.48,2.3l-1-3.42A73.18,73.18,0,0,1,561.65,806.79Z"/>
  <path fill="#fff1c2" d="M538.06,594.11c-1.72,6.48-8.75,33.2-10.59,40.19a6.69,6.69,0,0,1-3,4,6.47,6.47,0,0,1-2.11.88c-1.46.23-8.38,2.16-9.75,1.89a6.81,6.81,0,0,1-4.75-2.4L481.12,606.9a4,4,0,0,1,.56-5.67c15.6-12.35,34.05-16.5,53.45-12A4,4,0,0,1,538.06,594.11Z"/>
  <path fill="#251645" d="M524.39,638.06l-11.82,2.65,2.19,14.15a1.4,1.4,0,0,0,1.69,1.15l11-2.47a1.39,1.39,0,0,0,1-1.75Z"/>
  <path fill="#ff5285" d="M560.78,650.62l-8.85.28c.66,47.06,2.8,92.38,6.74,135.58a2,2,0,0,0,4-.12C563.85,743,563.11,697.63,560.78,650.62Z"/>
  <path fill="#ffc940" d="M561.24,660.33a49.33,49.33,0,0,1-9.14.31c0-1.27-.05-2.55-.07-3.84a44,44,0,0,1,9-.28C561.12,657.79,561.18,659.07,561.24,660.33Z"/>
  <path fill="#ffc940" d="M562.86,778.2c0,.77,0,1.54-.05,2.31a29.09,29.09,0,0,1-4.65.16c-.07-.77-.14-1.55-.2-2.32A25.86,25.86,0,0,1,562.86,778.2Z"/>
  <path fill="#fff1c2" d="M559,644.63c11.09-33.75-2-48.48-4.54-52.64-2.28,4.31-14.4,19.84-1.2,52.82Z"/>
  <path fill="#251645" d="M561.22,637.94l-10.53.34-.44,12.44A1.21,1.21,0,0,0,551.5,652l9.78-.31a1.21,1.21,0,0,0,1.17-1.33Z"/>
  <path fill="#ff5285" d="M592.22,632.59,558,824.33a1.84,1.84,0,0,0,1.45,2.14,1.86,1.86,0,0,0,2.18-1.4L605.46,635.3Z"/>
  <path fill="#ffc940" d="M600.19,658.07,599,663.45a63.82,63.82,0,0,1-11.8-2.43l1-5.4A64.47,64.47,0,0,1,600.19,658.07Z"/>
  <path fill="#ffc940" d="M563.89,815.22l-.77,3.37a37.14,37.14,0,0,1-4-.82l.6-3.39A38.69,38.69,0,0,1,563.89,815.22Z"/>
  <path fill="#fff1c2" d="M599.34,580.69a6.45,6.45,0,0,1,2,1.35c.75.87,1.07,2.15,1.88,2.89,1.14,1.07,2.87.78,4.23,1.42,1.64.78,2.51,2.78,4.1,3.56A12.21,12.21,0,0,1,614.1,591c1.26,1,1.19,3.27,2.54,4.07a1.69,1.69,0,0,1,1,2.24l-11.94,34.35-12.47-2.55,3.44-46.62A1.87,1.87,0,0,1,599.34,580.69Z"/>
  <path fill="#251645" d="M606.48,631.22l-13.6-2.78-4.36,15.82a1.59,1.59,0,0,0,1.22,2l12.63,2.59a1.61,1.61,0,0,0,1.91-1.36Z"/>
  <path fill="#ffc940" d="M593.5,728.71v97.15a7.36,7.36,0,0,1-6.31,7.29c-19.93,2.93-41.55,2.76-62.63-.07a7.39,7.39,0,0,1-6.39-7.31V728.71Z"/>
  <path fill="#251645" d="M593.5,730.67v17.94a460.18,460.18,0,0,1-74.9,0l-.43-.06V730.76C543,733.09,568,733.72,593.5,730.67Z"/>
  <path fill="#ffc940" d="M593,724.5a324.9,324.9,0,0,1-73.3,0,5.32,5.32,0,0,0-6,5.22v7.41a5.3,5.3,0,0,0,4.89,5.24,458.88,458.88,0,0,0,75.43,0,5.31,5.31,0,0,0,4.92-5.25v-7.39A5.33,5.33,0,0,0,593,724.5Z"/>
  <path fill="#29bbf5" d="M721.06,730H666.81a46.2,46.2,0,0,0-15.67,34.68v61.7a8.9,8.9,0,0,0,8.89,8.9h67.81a8.91,8.91,0,0,0,8.9-8.9v-61.7A46.21,46.21,0,0,0,721.06,730Z"/>
  <rect width="85.6" height="44" x="651.14" y="764.42" fill="#fff"/>
  <path fill="#29bbf5" d="M693.94,775c-12.34,0-22.34,5.12-22.34,11.42,1,15.11,43.71,15.1,44.68,0C716.28,780.12,706.27,775,693.94,775Z"/>
  <path fill="#251645" d="M717.58,724.11H670.3c-1.89,0-3.42,2.89-3.42,6.45H721C721,727,719.46,724.11,717.58,724.11Z"/>
  <rect width="57.44" height="22.59" x="665.21" y="702.28" fill="#29bbf5" rx="3.17"/>
  <path fill="#ff578c" d="M833.33,730H779.09a46.18,46.18,0,0,0-15.68,34.68v61.7a8.9,8.9,0,0,0,8.89,8.9h67.82a8.9,8.9,0,0,0,8.89-8.9v-61.7A46.18,46.18,0,0,0,833.33,730Z"/>
  <rect width="85.6" height="44" x="763.41" y="764.42" fill="#fff"/>
  <path fill="#ff578c" d="M806.21,775c-12.34,0-22.34,5.12-22.34,11.42,1,15.11,43.71,15.1,44.68,0C828.55,780.12,818.55,775,806.21,775Z"/>
  <path fill="#251645" d="M829.85,724.11H782.57c-1.89,0-3.41,2.89-3.41,6.45h54.1C833.26,727,831.73,724.11,829.85,724.11Z"/>
  <path fill="#ff578c" d="M780.66,702.28h51.09a3.17,3.17,0,0,1,3.17,3.17V721.7a3.17,3.17,0,0,1-3.17,3.17H780.66a3.18,3.18,0,0,1-3.18-3.18V705.46A3.17,3.17,0,0,1,780.66,702.28Z"/>
  <path fill="#251645" d="M1290.69,836.77H73.31a1.5,1.5,0,1,1,0-3H1290.69a1.5,1.5,0,0,1,0,3Z"/>
  <path fill="#29bbf5" d="M957,618.41l6.43-6.44a3.74,3.74,0,0,0-5.29-5.29l-6.44,6.44-6.43-6.44A3.74,3.74,0,0,0,940,612l6.44,6.44L940,624.83a3.74,3.74,0,0,0,5.29,5.3l6.42-6.43,6.43,6.43a3.74,3.74,0,1,0,5.29-5.3Z"/>
  <path fill="#29bbf5" d="M308.08,110.75l6.44-6.44A3.74,3.74,0,1,0,309.23,99l-6.44,6.44L296.35,99a3.74,3.74,0,0,0-5.29,5.29l6.44,6.44-6.43,6.42a3.74,3.74,0,0,0,5.29,5.3l6.43-6.43,6.43,6.43a3.74,3.74,0,0,0,5.29-5.3Z"/>
</svg>
